<?xml version="1.0" standalone="no"?>
<!DOCTYPE svg PUBLIC "-//W3C//DTD SVG 20010904//EN"
 "http://www.w3.org/TR/2001/REC-SVG-20010904/DTD/svg10.dtd">
<svg version="1.0" xmlns="http://www.w3.org/2000/svg"
 width="400.000000pt" height="400.000000pt" viewBox="0 0 400.000000 400.000000"
 preserveAspectRatio="xMidYMid meet">

<g transform="translate(0.000000,400.000000) scale(0.100000,-0.100000)"
fill="#000000" stroke="none">
<path d="M0 2000 l0 -2000 2000 0 2000 0 0 2000 0 2000 -2000 0 -2000 0 0
-2000z m1159 842 c160 -78 264 -277 233 -445 -17 -92 -62 -175 -132 -241 -33
-31 -64 -55 -69 -52 -5 3 -32 -10 -61 -29 -29 -19 -63 -38 -75 -41 -13 -3 -26
-13 -29 -22 -4 -10 -16 -33 -26 -52 -24 -42 -27 -163 -6 -213 7 -18 35 -52 60
-77 54 -52 67 -91 67 -191 0 -110 -53 -196 -155 -250 -33 -18 -52 -20 -103
-16 -75 6 -101 21 -144 83 -27 39 -34 62 -42 135 -10 86 -10 90 23 186 31 92
32 103 26 191 -7 94 -28 168 -45 158 -5 -3 -24 24 -41 62 -18 37 -52 89 -76
117 -83 94 -120 208 -112 342 5 96 44 187 109 258 46 50 117 106 89 70 -13
-17 -13 -18 0 -12 114 47 149 59 202 64 108 9 246 -36 321 -105 15 -14 27 -22
27 -16 -1 15 -44 59 -96 100 -54 41 -36 40 55 -4z m2031 -1113 c55 -24 96 -70
129 -149 26 -60 25 -122 -3 -175 -9 -16 -16 -35 -16 -40 0 -17 -82 -93 -113
-104 -16 -6 -57 -11 -93 -11 -59 0 -67 3 -101 34 -21 19 -50 57 -65 85 -53 97
-32 247 44 318 31 29 106 63 141 63 16 0 50 -9 77 -21z m-1965 -508 c57 -26
99 -64 131 -119 23 -41 27 -58 27 -132 1 -87 -12 -120 -65 -173 -45 -46 -145
-61 -211 -33 -52 22 -116 84 -144 139 -21 43 -25 60 -21 112 6 65 37 139 72
168 35 30 99 57 136 57 19 0 53 -9 75 -19z m1802 -29 c35 -36 83 -134 83 -169
0 -10 -10 -48 -22 -85 -47 -145 -180 -220 -307 -174 -19 7 -53 34 -75 60 l-41
48 0 97 c0 90 2 101 28 139 63 97 136 135 236 127 57 -5 67 -10 98 -43z
m-1182 -252 c63 -27 101 -65 126 -126 22 -56 22 -58 5 -108 -56 -159 -261
-216 -412 -115 -54 37 -84 96 -84 168 0 52 4 65 33 103 73 95 215 129 332 78z
m612 -7 c29 -14 67 -44 85 -67 30 -38 33 -47 33 -112 0 -67 -2 -73 -38 -118
-55 -66 -112 -91 -212 -91 -70 0 -87 4 -133 29 -68 38 -101 82 -109 145 -8 70
3 116 38 156 43 49 88 73 150 83 74 11 125 5 186 -25z"/>
<path d="M1199 2123 c-13 -16 -12 -17 4 -4 9 7 17 15 17 17 0 8 -8 3 -21 -13z"/>
</g>
</svg>
